# xmcd
#
# Track frame offsets:
#	150
#	19946
#	40060
#	57744
#	72587
#	87458
#	106886
#	123126
#	141143
#	156417
#	177273
#
# Disc length: 2684 seconds
#
# Revision: 2
# Processed by: cddbd v1.5.2PL0 Copyright (c) Steve Scherf et al.
# Submitted via: EZCDDA 4.3.2
#
DISCID=9c0a7a0b
DTITLE=Alice Cooper - Along Came A Spider
DYEAR=1900
DGENRE=
TTITLE0=Prologue/I Know Where You Live
TTITLE1=Vengeance Is Mine
TTITLE2=Wake The Dead
TTITLE3=Catch Me If You Can
TTITLE4=(In Touch With) Your Feminine
TTITLE5=Wrapped In Silk
TTITLE6=Killed By Love
TTITLE7=I'm Hungry
TTITLE8=The One That Got Away
TTITLE9=Salvation
TTITLE10=I Am The Spider/Epilogue
EXTD=
EXTT0=
EXTT1=
EXTT2=
EXTT3=
EXTT4=
EXTT5=
EXTT6=
EXTT7=
EXTT8=
EXTT9=
EXTT10=
PLAYORDER=
